<svg width="186" height="54" viewBox="0 0 186 54" fill="none" xmlns="http://www.w3.org/2000/svg">
<path d="M5.72422 23.92H19.7642L19.7642 37.96H22.4042V47.04H18.2442V42H5.20422V47.04H1.24422L1.24422 37.96H3.40422C5.76422 34.16 5.72422 28.6 5.72422 23.92ZM9.96422 27.96C9.96422 31.64 9.52422 34.96 8.08422 37.96H15.4042V27.96H9.96422ZM27.0892 51.24L31.1292 41.68L23.7692 23.92H28.4892L33.4892 36.16L38.5292 23.92H43.2092L31.6892 51.24H27.0892ZM63.6073 33C63.6073 38.6 60.2873 42.56 54.6073 42.56C48.2873 42.56 45.0473 38.12 45.0473 31.68C45.0473 21.64 46.8073 17.48 53.8073 15.88C56.5273 15.28 59.0873 14.76 61.7673 13.92L62.6873 17.6C60.4073 18.32 57.5273 18.76 55.4473 19.28C50.1673 20.4 48.8473 22.84 48.4473 27.32C49.8873 25.4 52.3273 24.32 54.7673 24.32C60.6473 24.32 63.6073 28.04 63.6073 33ZM59.4073 33.28C59.4073 30.2 57.6473 27.88 54.5673 27.88C51.4873 27.88 49.2473 30.2 49.2473 33.28C49.2473 36.44 51.4873 38.72 54.5673 38.72C57.6473 38.72 59.4073 36.44 59.4073 33.28ZM76.128 42.56C70.848 42.56 66.688 38.2 66.688 32.96C66.688 27.68 70.848 23.4 76.128 23.4C81.408 23.4 85.488 27.68 85.488 32.96C85.488 38.2 81.408 42.56 76.128 42.56ZM81.168 32.96C81.168 29.96 79.088 27.48 76.128 27.48C73.168 27.48 71.008 29.96 71.008 32.96C71.008 35.92 73.168 38.44 76.128 38.44C79.088 38.44 81.168 35.92 81.168 32.96ZM89.1248 23.92L98.4448 23.92C101.645 23.92 103.605 26 103.645 28.52C103.645 30.08 102.845 31.64 101.325 32.52C103.245 33.24 104.405 35.04 104.405 37.08C104.405 39.76 102.285 42 98.8048 42H89.1248V23.92ZM93.4848 27.4V31.16L97.2448 31.16C98.6048 31.16 99.4448 30.32 99.4448 29.16C99.4448 28.04 98.6048 27.4 97.2448 27.4L93.4848 27.4ZM93.4848 34.28V38.52H97.4048C99.0448 38.52 100.085 37.8 100.085 36.52C100.085 35.2 99.0048 34.28 97.3648 34.28H93.4848ZM117.144 42.56C111.864 42.56 107.704 38.2 107.704 32.96C107.704 27.68 111.864 23.4 117.144 23.4C122.424 23.4 126.504 27.68 126.504 32.96C126.504 38.2 122.424 42.56 117.144 42.56ZM122.184 32.96C122.184 29.96 120.104 27.48 117.144 27.48C114.184 27.48 112.024 29.96 112.024 32.96C112.024 35.92 114.184 38.44 117.144 38.44C120.104 38.44 122.184 35.92 122.184 32.96ZM133.547 31.08H135.907C137.387 31.08 138.307 30.24 138.307 29.04C138.307 27.84 137.507 27.08 135.947 27.08C134.067 27.08 133.067 27.68 131.467 29.4C131.427 29.36 128.987 27 128.987 27C131.067 24.56 133.067 23.4 136.267 23.4C140.267 23.4 142.467 25.68 142.467 28.36C142.467 30.2 141.587 31.64 140.147 32.52C141.947 33.4 143.067 34.92 143.067 36.76C143.067 39.64 140.867 42.56 135.787 42.56C132.867 42.56 130.907 41.76 128.667 39.4L130.827 36.76C132.667 38.36 133.627 38.92 135.587 38.92C137.627 38.92 138.707 37.72 138.707 36.36C138.707 35.12 137.507 34.36 135.907 34.36H133.547V31.08ZM163.627 42C162.787 42.28 162.067 42.36 161.387 42.36C156.387 42.36 155.027 36.04 152.547 34.64H151.027V42H146.667V23.92H151.027V30.6H152.347L158.187 23.92L163.267 23.92L156.027 32.44C158.107 33.32 159.627 38.16 162.467 38.16C162.827 38.16 163.187 38.08 163.627 37.92V42ZM183.389 42H179.029V30.76L170.389 42H166.589V23.92H170.949V35.08L179.589 23.92H183.389V42Z" fill="white"/>
</svg>
